<?xml version="1.0" encoding="UTF-8"?>
<svg width="25px" height="22px" viewBox="0 0 25 22" version="1.1" xmlns="http://www.w3.org/2000/svg" xmlns:xlink="http://www.w3.org/1999/xlink">
    <!-- Generator: Sketch 42 (36781) - http://www.bohemiancoding.com/sketch -->
    <title>briefcase</title>
    <desc>Created with Sketch.</desc>
    <defs></defs>
    <g id="Page-1" stroke="none" stroke-width="1" fill="none" fill-rule="evenodd">
        <g id="Flat---Outline" transform="translate(-500.000000, -52.000000)" fill="#000000">
            <g id="briefcase" transform="translate(500.000000, 52.000000)">
                <path d="M23.5,20.0041 L1.5,20.0041 C1.224,20.0041 1,19.7791 1,19.5041 L1,11.0041 L10,11.0041 L10,12.5041 C10,12.7801 10.224,13.0041 10.5,13.0041 L14.5,13.0041 C14.776,13.0041 15,12.7801 15,12.5041 L15,11.0041 L24,11.0041 L24,19.5041 C24,19.7791 23.776,20.0041 23.5,20.0041 L23.5,20.0041 Z M11,12.0041 L14,12.0041 L14,9.0041 L11,9.0041 L11,12.0041 Z M1.5,5.0041 L7.5,5.0041 L17.5,5.0041 L23.5,5.0041 C23.776,5.0041 24,5.2291 24,5.5041 L24,10.0041 L15,10.0041 L15,8.5041 C15,8.2281 14.776,8.0041 14.5,8.0041 L10.5,8.0041 C10.224,8.0041 10,8.2281 10,8.5041 L10,10.0041 L1,10.0041 L1,5.5041 C1,5.2291 1.224,5.0041 1.5,5.0041 L1.5,5.0041 Z M8,1.5041 C8,1.2291 8.224,1.0041 8.5,1.0041 L16.5,1.0041 C16.776,1.0041 17,1.2291 17,1.5041 L17,4.0041 L8,4.0041 L8,1.5041 Z M23.5,4.0041 L18,4.0041 L18,1.5041 C18,0.6771 17.327,0.0041 16.5,0.0041 L8.5,0.0041 C7.673,0.0041 7,0.6771 7,1.5041 L7,4.0041 L1.5,4.0041 C0.673,4.0041 0,4.6771 0,5.5041 L0,19.5041 C0,20.3311 0.673,21.0041 1.5,21.0041 L23.5,21.0041 C24.327,21.0041 25,20.3311 25,19.5041 L25,5.5041 C25,4.6771 24.327,4.0041 23.5,4.0041 L23.5,4.0041 Z" id="Fill-30"></path>
            </g>
        </g>
    </g>
</svg>